# xmcd CD database file
#
# Track frame offsets:
#	150
#	26853
#	49172
#	74803
#	97012
#	125105
#	148508
#	172290
#	192141
#	215203
#	238639
#	251933
#	257368
#	280704
#	295618
#	318839
#
# Disc length: 4556 seconds
#
# Revision: 6
# Processed by: cddbd v1.5.2PL0 Copyright (c) Steve Scherf et al.
# Submitted via: CDex 1.70beta2
#
DISCID=0611ca10
DTITLE=Black Zone Ensemble - Life
DYEAR=2007
DGENRE=Jazz
TTITLE0=Black Zone Ensemble - Luna Magica
TTITLE1=Black Zone Ensemble - Fire Dance
TTITLE2=Black Zone Ensemble - Montparnasse
TTITLE3=Black Zone Ensemble - Give Me A Sign feat. Nathalie Claude
TTITLE4=Black Zone Ensemble - Al Centro De Cuba
TTITLE5=Black Zone Ensemble - Brazil 2k
TTITLE6=Black Zone Ensemble - Fumo Negli Occhi feat. Stefania Dipierro
TTITLE7=Black Zone Ensemble - Unreality Forest
TTITLE8=Black Zone Ensemble - Take A Look Inside
TTITLE9=Black Zone Ensemble - Upside Down
TTITLE10=Black Zone Ensemble - Rendez-Vous Au Katmandu
TTITLE11=Black Zone Ensemble - Interlude
TTITLE12=Black Zone Ensemble - Exister
TTITLE13=Black Zone Ensemble - Sudbahnhof Train
TTITLE14=Black Zone Ensemble - So Good
TTITLE15=Black Zone Ensemble - Mediterranea
EXTD=YEAR: 2007
EXTT0=
EXTT1=
EXTT2=
EXTT3=
EXTT4=
EXTT5=
EXTT6=
EXTT7=
EXTT8=
EXTT9=
EXTT10=
EXTT11=
EXTT12=
EXTT13=
EXTT14=
EXTT15=
PLAYORDER=
